HIERARCHY
ROOT Hips
{
	OFFSET 0.00000 0.00000 0.00000
	CHANNELS 6 Xposition Yposition Zposition Zrotation Yrotation Xrotation 
	JOINT LHipJoint
	{
		OFFSET 0 0 0
		CHANNELS 3 Zrotation Yrotation Xrotation
		JOINT LeftUpLeg
		{
			OFFSET 1.54859 -1.61379 0.86856
			CHANNELS 3 Zrotation Yrotation Xrotation
			JOINT LeftLeg
			{
				OFFSET 2.25087 -6.18423 0.00000
				CHANNELS 3 Zrotation Yrotation Xrotation
				JOINT LeftFoot
				{
					OFFSET 2.40328 -6.60297 0.00000
					CHANNELS 3 Zrotation Yrotation Xrotation
					JOINT LeftToeBase
					{
						OFFSET 0.17435 -0.47901 2.02453
						CHANNELS 3 Zrotation Yrotation Xrotation
						End Site
						{
							OFFSET 0.00000 -0.00000 1.04844
						}
					}
				}
			}
		}
	}
	JOINT RHipJoint
	{
		OFFSET 0 0 0
		CHANNELS 3 Zrotation Yrotation Xrotation
		JOINT RightUpLeg
		{
			OFFSET -1.54669 -1.61379 0.86856
			CHANNELS 3 Zrotation Yrotation Xrotation
			JOINT RightLeg
			{
				OFFSET -2.28132 -6.26789 0.00000
				CHANNELS 3 Zrotation Yrotation Xrotation
				JOINT RightFoot
				{
					OFFSET -2.51636 -6.91365 0.00000
					CHANNELS 3 Zrotation Yrotation Xrotation
					JOINT RightToeBase
					{
						OFFSET -0.15124 -0.41552 2.21090
						CHANNELS 3 Zrotation Yrotation Xrotation
						End Site
						{
							OFFSET -0.00000 -0.00000 1.13399
						}
					}
				}
			}
		}
	}
	JOINT LowerBack
	{
		OFFSET 0 0 0
		CHANNELS 3 Zrotation Yrotation Xrotation
		JOINT Spine
		{
			OFFSET -0.04287 2.26161 -0.25690
			CHANNELS 3 Zrotation Yrotation Xrotation
			JOINT Spine1
			{
				OFFSET 0.02248 2.28395 -0.10140
				CHANNELS 3 Zrotation Yrotation Xrotation
				JOINT Neck
				{
					OFFSET 0 0 0
					CHANNELS 3 Zrotation Yrotation Xrotation
					JOINT Neck1
					{
						OFFSET -0.11644 1.38496 0.11345
						CHANNELS 3 Zrotation Yrotation Xrotation
						JOINT Head
						{
							OFFSET 0.29383 1.36600 0.06642
							CHANNELS 3 Zrotation Yrotation Xrotation
							End Site
							{
								OFFSET 0.11075 1.41395 -0.00294
							}
						}
					}
				}
				JOINT LeftShoulder
				{
					OFFSET 0 0 0
					CHANNELS 3 Zrotation Yrotation Xrotation
					JOINT LeftArm
					{
						OFFSET 3.51628 0.59542 -0.30346
						CHANNELS 3 Zrotation Yrotation Xrotation
						JOINT LeftForeArm
						{
							OFFSET 4.76405 -0.00000 0.00000
							CHANNELS 3 Zrotation Yrotation Xrotation
							JOINT LeftHand
							{
								OFFSET 3.13759 -0.00000 -0.00000
								CHANNELS 3 Zrotation Yrotation Xrotation
								JOINT LeftFingerBase
								{
									OFFSET 0 0 0
									CHANNELS 3 Zrotation Yrotation Xrotation
									JOINT LeftHandIndex1
									{
										OFFSET 0.73226 -0.00000 -0.00000
										CHANNELS 3 Zrotation Yrotation Xrotation
										End Site
										{
											OFFSET 0.59037 -0.00000 -0.00000
										}
									}
								}
								JOINT LThumb
								{
									OFFSET 0 0 0
									CHANNELS 3 Zrotation Yrotation Xrotation
									End Site
									{
										OFFSET 0.59938 -0.00000 0.59938
									}
								}
							}
						}
					}
				}
				JOINT RightShoulder
				{
					OFFSET 0 0 0
					CHANNELS 3 Zrotation Yrotation Xrotation
					JOINT RightArm
					{
						OFFSET -3.30990 0.84213 -0.36430
						CHANNELS 3 Zrotation Yrotation Xrotation
						JOINT RightForeArm
						{
							OFFSET -5.10161 -0.00000 -0.00000
							CHANNELS 3 Zrotation Yrotation Xrotation
							JOINT RightHand
							{
								OFFSET -3.23267 -0.00000 -0.00000
								CHANNELS 3 Zrotation Yrotation Xrotation
								JOINT RightFingerBase
								{
									OFFSET 0 0 0
									CHANNELS 3 Zrotation Yrotation Xrotation
									JOINT RightHandIndex1
									{
										OFFSET -0.70200 -0.00000 -0.00000
										CHANNELS 3 Zrotation Yrotation Xrotation
										End Site
										{
											OFFSET -0.56597 -0.00000 -0.00000
										}
									}
								}
								JOINT RThumb
								{
									OFFSET 0 0 0
									CHANNELS 3 Zrotation Yrotation Xrotation
									End Site
									{
										OFFSET -0.57461 -0.00000 0.57461
									}
								}
							}
						}
					}
				}
			}
		}
	}
}
MOTION
Frames: 7
Frame Time: .0083333
-24.3207 14.7792 13.8 0 0 0 0 0 0 -21 0 0 0 0 0 0 0 0 0 0 0 0 0 0 21 0 0 0 0 0 0 0 0 0 0 0 0 0 0 0 0 0 0 0 0 0 0 -16 0 0 21 0 0 11 0 0 0 -8 0 0 0 0 0 0 0 0 0 0 0 0 0 0 0 0 0 0 0 0 8 0 0 0 0 0 0 0 0 0 0 0 0 0 0 0 0 0
-24.3207 14.7792 13.8000 -111.3300 86.5601 -100.4400 0.0000 0.0000 0.0000 -13.3338 0.6700 -55.1220 27.3937 18.6354 112.1017 -0.0231 4.5014 -5.4779 0.1844 -2.7661 -7.6283 0.0000 0.0000 0.0000 22.2340 -4.1870 -7.1196 -5.5252 -13.9519 43.0452 -2.0982 0.3654 -27.3227 -5.0965 13.4917 -41.2380 -3.8900 3.6323 16.0904 2.5799 4.7436 7.9350 4.0990 2.4170 -1.0631 -6.1149 -3.1425 -12.7646 9.3266 -1.6659 -16.5695 3.8558 -0.2656 -2.7201 0.0000 0.0000 0.0000 -81.9260 52.0408 69.0337 23.4325 -34.5584 -7.3822 -0.0000 0.0000 -14.5880 -0.7410 27.7091 -0.3446 -7.1250 0.0000 -0.0000 -32.5770 54.5355 -8.2939 0.0000 0.0000 0.0000 65.1302 41.2107 25.2509 -97.9527 59.7597 -66.8817 0.0000 0.0000 8.8020 -38.9429 26.4619 -19.8043 7.1250 -0.0000 -0.0000 -5.2398 2.5169 -5.4875
-23.6906 14.8473 13.6322 -109.3660 86.8400 -98.4351 0.0000 0.0000 0.0000 -13.4532 -1.2587 -57.0777 26.0746 19.0913 108.0234 -0.0598 5.5370 -5.6884 0.4939 -4.5059 -12.5046 0.0000 0.0000 0.0000 20.5892 -5.8828 -3.3027 -4.6293 -12.9538 39.1956 -1.7203 4.8982 -23.7106 -4.6946 13.0314 -39.4861 -4.1929 4.3708 15.6452 2.5120 5.6947 8.1809 4.0652 2.8761 -0.6808 -7.9498 -4.1709 -12.4362 11.2629 -2.6172 -17.2338 4.7676 -0.6698 -2.8020 -0.0000 0.0000 0.0000 -79.8147 52.7620 69.8889 25.6396 -36.8506 -8.6706 -0.0000 0.0000 -15.5259 -1.3616 25.0595 -0.5768 -7.1250 0.0000 -0.0000 -31.2863 52.1708 -6.0065 -0.0000 0.0000 0.0000 63.6106 40.4727 21.6067 -90.8208 59.9975 -60.7108 0.0000 0.0000 21.8263 -34.0340 28.7276 -17.9842 7.1250 -0.0000 -0.0000 -1.9345 3.4840 -2.0496
-23.0495 14.9261 13.4611 -112.0050 87.0378 -101.1330 0.0000 0.0000 0.0000 -13.4691 -3.3285 -58.3595 24.5273 19.5013 103.3434 -0.0916 6.0966 -5.3231 0.5287 -4.6596 -12.9402 0.0000 0.0000 0.0000 18.9483 -7.3811 0.6659 -3.7969 -11.8851 35.3266 -1.0248 9.5497 -18.2852 -3.7490 11.8188 -35.0938 -4.1745 5.0846 15.4336 2.1713 6.6236 8.1396 3.5451 3.3420 -0.6670 -8.7441 -5.0946 -10.9604 12.9371 -3.6371 -18.3012 5.4520 -1.2173 -3.1616 -0.0000 -0.0000 0.0000 -76.6808 53.3681 71.3174 27.4865 -38.6392 -9.8014 -0.0000 0.0000 -16.5065 -4.4563 24.8504 -1.8759 -7.1250 0.0000 -0.0000 -33.9370 51.4747 -5.9945 -0.0000 -0.0000 0.0000 63.0858 39.1147 21.3117 -81.2827 59.7109 -52.4580 0.0000 0.0000 25.1384 -35.4199 29.9093 -19.5254 7.1250 -0.0000 -0.0000 -2.4627 5.2087 -2.6784
-22.4047 14.9972 13.2912 -119.3570 87.3913 -108.4490 0.0000 0.0000 0.0000 -13.6093 -5.4620 -59.2641 22.8446 19.8049 98.3431 -0.0915 6.0187 -5.1210 1.2450 -7.0748 -19.9371 0.0000 0.0000 0.0000 17.0589 -8.7704 4.5469 -2.9966 -10.6895 31.2399 -0.2570 11.8840 -11.5545 -3.3526 11.2450 -33.1107 -4.4793 5.7013 14.9285 1.9273 7.4227 8.3588 3.3788 3.7280 -0.2438 -9.4772 -6.1205 -10.5317 14.2476 -4.7970 -18.9278 5.9893 -1.7923 -3.2037 0.0000 -0.0000 0.0000 -74.5630 53.0617 71.9020 29.1784 -40.1786 -10.8756 -0.0000 0.0000 -17.8368 -5.2020 24.6815 -2.1772 -7.1250 0.0000 -0.0000 -34.4865 51.2104 -5.8708 0.0000 -0.0000 0.0000 62.3239 38.5470 20.9002 -70.2492 58.4735 -42.9829 0.0000 0.0000 26.2847 -34.6293 29.3645 -18.7086 7.1250 -0.0000 -0.0000 -2.1373 4.3628 -2.2953
-21.7514 15.0671 13.1196 -134.2240 87.6799 -123.2000 0.0000 0.0000 0.0000 -13.9426 -7.4006 -59.9240 20.9768 19.9771 92.8570 -0.0927 5.9154 -4.7542 1.1154 -6.7094 -18.8571 0.0000 0.0000 0.0000 15.0464 -10.0654 8.5247 -2.2447 -9.3582 26.9222 0.3297 12.4816 -3.2371 -2.5012 9.8401 -28.4603 -4.8271 6.2185 14.2417 1.6507 8.1177 8.7171 3.2627 4.0572 0.4341 -9.9999 -7.0817 -10.4021 15.2458 -5.8978 -19.4771 6.3811 -2.3280 -3.1828 -0.0000 0.0000 0.0000 -72.9544 52.1412 72.1163 30.5590 -41.3678 -11.7773 -0.0000 0.0000 -19.3180 -5.8733 24.9349 -2.4833 -7.1250 0.0000 -0.0000 -35.2517 51.3108 -6.1262 -0.0000 0.0000 0.0000 61.7173 38.4060 19.9611 -59.8160 56.2607 -34.1880 0.0000 0.0000 27.0101 -33.3818 29.7682 -18.1155 7.1250 -0.0000 -0.0000 -1.3454 4.4219 -1.4455
-21.1091 15.1103 12.9422 -146.4240 87.0736 -135.5430 0.0000 0.0000 0.0000 -13.6479 -9.3174 -60.2629 19.0539 19.9785 87.2329 -0.0577 4.9687 -4.5424 1.1202 -6.7232 -18.8979 0.0000 0.0000 0.0000 13.8728 -11.2536 13.0619 -1.5567 -7.8743 22.3328 0.3629 10.7855 1.8816 -3.9538 12.0986 -36.0817 -4.3804 6.4792 13.9407 1.5751 8.5654 9.0777 2.9355 4.2938 1.0060 -10.4901 -7.7828 -9.7857 16.0238 -6.6937 -20.2896 6.7307 -2.7297 -3.3540 0.0000 -0.0000 0.0000 -72.0005 51.1190 71.9139 31.6817 -42.2919 -12.5261 -0.0000 0.0000 -20.5439 -7.2788 25.3973 -3.1356 -7.1250 0.0000 -0.0000 -36.8096 51.4578 -6.6116 0.0000 -0.0000 0.0000 61.4152 38.6414 18.9007 -50.4240 53.1651 -26.5131 0.0000 0.0000 28.0819 -31.0437 29.9318 -16.7165 7.1250 -0.0000 -0.0000 0.0134 3.9219 0.0143
